# AST/ASF file generated using VICON BodyLanguage
# -----------------------------------------------
:version 1.10
:name VICON
:units
  mass 1.0
  length 0.45
  angle deg
:documentation
   .ast/.asf automatically generated from VICON data using
   VICON BodyBuilder and BodyLanguage model FoxedUp or BRILLIANT.MOD
:root
   order TX TY TZ RX RY RZ
   axis XYZ
   position 0 0 0  
   orientation 0 0 0 
:bonedata
  begin
     id 1 
     name lhipjoint
     direction 0.714689 -0.624256 0.315473 
     length 2.45343 
     axis 0 0 0  XYZ
  end
  begin
     id 2 
     name lfemur
     direction 0.34202 -0.939693 0  
     length 6.59069  
     axis 0 0 20  XYZ
    dof rx ry rz
    limits (-160.0 20.0)
           (-70.0 70.0)
           (-60.0 70.0)
  end
  begin
     id 3 
     name ltibia
     direction 0.34202 -0.939693 0   
     length 6.73476   
     axis 0 0 20   XYZ
    dof rx
    limits (-10.0 170.0)
  end
  begin
     id 4 
     name lfoot
     direction 0.0718085 -0.197292 0.977711   
     length 1.52607   
     axis -90 7.62852e-016 20   XYZ
    dof rx rz
    limits (-45.0 90.0)
           (-70.0 20.0)
  end
  begin
     id 5 
     name ltoes
     direction 1.53553e-011 -4.22024e-011 1   
     length 0.777832   
     axis -90 7.62852e-016 20   XYZ
    dof rx
    limits (-90.0 20.0)
  end
  begin
     id 6 
     name rhipjoint
     direction -0.727419 -0.612432 0.309497   
     length 2.50079  
     axis 0 0 0  XYZ 
  end
  begin
     id 7 
     name rfemur
     direction -0.34202 -0.939693 0   
     length 6.51665   
     axis 0 0 -20   XYZ
    dof rx ry rz
    limits (-160.0 20.0)
           (-70.0 70.0)
           (-70.0 60.0)
  end
  begin
     id 8 
     name rtibia
     direction -0.34202 -0.939693 0   
     length 6.48919   
     axis 0 0 -20   XYZ
    dof rx
    limits (-10.0 170.0)
 end
 begin
     id 9 
     name rfoot
     direction -0.112205 -0.308282 0.944655   
     length 1.68717  
     axis -90 -7.62852e-016 -20   XYZ
    dof rx rz
    limits (-45.0 90.0)
           (-20.0 70.0)
  end
  begin
     id 10 
     name rtoes
     direction -1.53583e-011 -4.21993e-011 1   
     length 0.846859   
     axis -90 -7.62852e-016 -20   XYZ
    dof rx
    limits (-90.0 20.0)
  end
  begin
     id 11 
     name lowerback
     direction -0.00119603 0.996364 -0.0851956   
     length 1.67242   
     axis 0 0 0   XYZ
    dof rx ry rz
    limits (-20.0 45.0)
           (-30.0 30.0)
           (-30.0 30.0)
  end
  begin
     id 12 
     name upperback
     direction -0.00531001 0.998318 0.0577248   
     length 1.64819   
     axis 0 0 0   XYZ
    dof rx ry rz
    limits (-20.0 45.0)
           (-30.0 30.0)
           (-30.0 30.0)
  end
  begin
     id 13 
     name thorax
     direction -0.00653676 0.995132 0.0983291   
     length 1.67429   
     axis 0 0 0   XYZ
    dof rx ry rz
    limits (-20.0 45.0)
           (-30.0 30.0)
           (-30.0 30.0)
  end
  begin
     id 14 
     name lowerneck
     direction 0.0141424 0.999886 0.00525412   
     length 1.59623   
     axis 0 0 0   XYZ
    dof rx ry rz
    limits (-20.0 45.0)
           (-30.0 30.0)
           (-30.0 30.0)
  end
  begin
     id 15 
     name upperneck
     direction -0.0640064 0.987178 -0.146232   
     length 1.59576   
     axis 0 0 0   XYZ
    dof rx ry rz
    limits (-20.0 45.0)
           (-30.0 30.0)
           (-30.0 30.0)
  end
  begin
     id 16
     name head
     direction -0.0222942 0.998496 -0.0500859  
     length 1.60959  
     axis 0 0 0   XYZ
    dof rx ry rz
    limits (-20.0 45.0)
           (-30.0 30.0)
           (-30.0 30.0)
  end
  begin
     id 17 
     name lclavicle
     direction 0.908549 0.392612 0.142806  
     length 2.80649  
     axis 0 0 0   XYZ
    dof ry rz
    limits (-20.0 10.0)
           (0.0 20.0)
  end
  begin
     id 18 
     name lhumerus
     direction 1 -4.48968e-011 1.08832e-028   
     length 4.2884   
     axis -180 -30 -90   XYZ
    dof rx ry rz
    limits (-60.0 90.0)
           (-90.0 90.0)
           (-90.0 90.0)
  end
  begin
     id 19
     name lradius
     direction 1 -4.48952e-011 -3.02642e-028   
     length 3.06552   
     axis -180 -30 -90   XYZ
    dof rx
    limits (-10.0 170.0)
  end
  begin
     id 20
     name lwrist
     direction 1 -4.49014e-011 1.58672e-027   
     length 1.53276   
     axis -1.65735e-015 90 90   XYZ
    dof ry
    limits (-180.0 0.0)
 end
  begin
     id 21 
     name lhand
     direction 1 -4.48928e-011 3.17344e-027   
     length 0.753045   
     axis -2.02492e-015 90 90   XYZ
    dof rx rz
    limits (-90.0 90.0)
           (-45.0 45.0)
  end
  begin
     id 22 
     name lfingers
     direction 1 -4.48958e-011 6.34687e-027   
     length 0.607124   
     axis -4.04985e-015 90 90   XYZ
    dof rx
    limits (0.0 90.0)
  end
  begin
     id 23
     name lthumb
     direction 0.707107 -6.34905e-011 0.707107   
     length 0.871712   
     axis -90 45 2.85299e-015   XYZ
    dof rx rz
    limits (-45.0 45.0)
           (-45.0 45.0)
  end
  begin
     id 24 
     name rclavicle
     direction -0.885098 0.45949 0.0739604   
     length 2.9478  
     axis 0 0 0   XYZ 
    dof ry rz
    limits (-10.0 20.0)
           (-20.0 0.0)
  end
  begin
     id 25 
     name rhumerus
     direction -1 -4.4898e-011 -2.61739e-027  
     length 4.52172   
     axis -180 30 90   XYZ
    dof rx ry rz
    limits (-90.0 60.0)
           (-90.0 90.0)
           (-90.0 90.0)
  end
  begin
     id 26 
     name rradius
     direction -1 -4.48945e-011 9.02552e-028   
     length 2.8914   
     axis -180 30 90   XYZ
    dof rx
    limits (-10.0 170.0)
  end
  begin
     id 27 
     name rwrist
     direction -1 -4.49018e-011 1.58672e-027   
     length 1.4457   
     axis -1.65735e-015 -90 -90   XYZ
    dof ry
    limits (-180.0 0.0)
  end
  begin
     id 28
     name rhand
     direction -1 -4.48825e-011 3.17344e-027   
     length 0.680541   
     axis -2.02492e-015 -90 -90   XYZ
    dof rx rz
    limits (-90.0 90.0)
           (-45.0 45.0)
  end
  begin
     id 29
     name rfingers
     direction -1 -4.49067e-011 6.34687e-027   
     length 0.54867   
     axis -4.04985e-015 -90 -90   XYZ
    dof rx
    limits (0.0 90.0)
  end
  begin
     id 30
     name rthumb
     direction -0.707107 -6.34833e-011 0.707107   
     length 0.787783   
     axis -90 -45 -2.85299e-015   XYZ
    dof rx rz
    limits (-45.0 45.0)
           (-45.0 45.0)
  end
:hierarchy
  begin
    root lhipjoint rhipjoint lowerback
    lhipjoint lfemur
    lfemur ltibia
    ltibia lfoot
    lfoot ltoes
    rhipjoint rfemur
    rfemur rtibia
    rtibia rfoot
    rfoot rtoes
    lowerback upperback
    upperback thorax
    thorax lowerneck lclavicle rclavicle
    lowerneck upperneck
    upperneck head
    lclavicle lhumerus
    lhumerus lradius
    lradius lwrist
    lwrist lhand lthumb
    lhand lfingers
    rclavicle rhumerus
    rhumerus rradius
    rradius rwrist
    rwrist rhand rthumb
    rhand rfingers
  end

#!OML:ASF E:\emotionWalksFemale\Project 1\Capture day 1\Session 1\Female1.ASF
:FULLY-SPECIFIED
:DEGREES
63
root 8.56337 15.4076 22.8981 -174.793 0.419263 -179.159
lowerback 13.4761 0.851472 0.90729
upperback -2.60963 1.25858 -0.378651
thorax -10.3905 0.531699 -1.20198
lowerneck -9.68489 -3.4791 -7.10073
upperneck 0.442653 -4.27389 7.73828
head 2.2442 -2.0283 3.62995
rclavicle 1.45361e-014 6.95746e-016
rhumerus -58.3534 23.1139 -100.03
rradius 43.4048
rwrist 20.2272
rhand -25.0424 -52.5767
rfingers 7.12502
rthumb 1.47064 -82.5514
lclavicle 1.45361e-014 6.95746e-016
lhumerus -58.091 -10.2285 89.2615
lradius 37.9729
lwrist -3.12828
lhand -5.12313 -43.1914
lfingers 7.12502
lthumb 20.6751 -14.2726
rfemur -13.8889 7.64949 23.3357
rtibia 27.7861
rfoot -18.9903 -21.7474
rtoes -7.57404
lfemur -17.9895 -9.27268 -21.3034
ltibia 31.3371
lfoot -21.8679 11.1734
ltoes -42.3154
64
root 8.56718 15.3947 22.9157 -174.567 0.380122 -179.019
lowerback 13.8049 0.827695 0.991206
upperback -2.59471 1.25563 -0.270318
thorax -10.5675 0.527096 -1.13838
lowerneck -9.89377 -3.51552 -7.06685
upperneck 0.408715 -4.30336 7.48693
head 2.26305 -2.04628 3.53108
rclavicle -6.58474e-015 5.1684e-015
rhumerus -58.4213 23.4035 -99.9765
rradius 43.8876
rwrist 20.047
rhand -24.6755 -52.8649
rfingers 7.12502
rthumb 1.82496 -82.8368
lclavicle -6.58474e-015 5.1684e-015
lhumerus -58.1503 -10.1132 89.4228
lradius 38.1812
lwrist -2.49613
lhand -5.18677 -43.3251
lfingers 7.12502
lthumb 20.614 -14.3997
rfemur -14.4589 7.40444 23.4713
rtibia 28.2337
rfoot -19.0678 -21.5791
rtoes -7.75864
lfemur -18.6483 -8.95559 -21.0899
ltibia 31.9261
lfoot -21.9828 10.9809
ltoes -42.7755
65
root 8.57186 15.3804 22.9313 -174.355 0.360579 -178.92
lowerback 13.9672 0.804005 1.00512
upperback -2.47704 1.23884 -0.16868
thorax -10.5342 0.523167 -1.03414
lowerneck -10.2098 -3.51814 -7.12748
upperneck 0.386703 -4.28396 7.41892
head 2.31192 -2.03625 3.51794
rclavicle -3.8266e-015 3.97569e-016
rhumerus -58.416 23.6294 -99.8268
rradius 44.367
rwrist 19.958
rhand -24.6281 -52.6902
rfingers 7.12502
rthumb 1.87072 -82.6617
lclavicle -3.8266e-015 3.97569e-016
lhumerus -58.1323 -9.99322 89.4984
lradius 38.4991
lwrist -1.9675
lhand -5.25082 -43.2849
lfingers 7.12502
lthumb 20.5524 -14.3529
rfemur -15.0015 7.23174 23.5621
rtibia 28.6713
rfoot -19.1835 -21.3788
rtoes -7.42514
lfemur -19.2875 -8.6563 -20.9241
ltibia 32.5162
lfoot -22.2285 10.6677
ltoes -42.4399
66
root 8.57623 15.3693 22.9472 -174.135 0.33722 -178.868
lowerback 14.0594 0.793616 1.04557
upperback -2.36379 1.23435 -0.1621
thorax -10.4616 0.520483 -1.04934
lowerneck -10.2711 -3.50408 -7.18776
upperneck 0.203826 -4.26652 7.59113
head 2.26847 -2.02809 3.59027
rclavicle 2.01269e-015 -1.19271e-015
rhumerus -58.3547 23.6379 -99.7508
rradius 44.7902
rwrist 19.8423
rhand -24.7103 -52.4495
rfingers 7.12502
rthumb 1.7914 -82.4218
lclavicle 2.01269e-015 -1.19271e-015
lhumerus -58.0559 -10.0415 89.4865
lradius 38.7066
lwrist -1.59561
lhand -5.36774 -43.4662
lfingers 7.12502
lthumb 20.4401 -14.522
rfemur -15.5671 7.09104 23.599
rtibia 29.1335
rfoot -19.3481 -21.1982
rtoes -6.82972
lfemur -19.9157 -8.35932 -20.8115
ltibia 33.0788
lfoot -22.541 10.2616
ltoes -41.9173
67
root 8.58133 15.3592 22.9663 -173.91 0.324403 -178.847
lowerback 14.3688 0.785802 1.06486
upperback -2.34646 1.2322 -0.158153
thorax -10.623 0.516948 -1.06155
lowerneck -10.1752 -3.50544 -7.22059
upperneck -0.108634 -4.27043 7.62535
head 2.14783 -2.03704 3.60744
rclavicle -1.67849e-014 4.37326e-015
rhumerus -58.3838 23.9171 -99.8551
rradius 45.2452
rwrist 19.4675
rhand -24.5275 -52.6935
rfingers 7.12502
rthumb 1.96788 -82.6642
lclavicle -1.67849e-014 4.37326e-015
lhumerus -58.0193 -9.96507 89.4504
lradius 38.8732
lwrist -1.41242
lhand -5.3145 -43.5147
lfingers 7.12502
lthumb 20.4912 -14.5761
rfemur -16.1542 6.82872 23.6134
rtibia 29.6088
rfoot -19.5461 -20.9646
rtoes -6.81382
lfemur -20.5393 -7.98995 -20.7326
ltibia 33.6271
lfoot -22.7111 9.85337
ltoes -41.4857
68
root 8.58688 15.3477 22.9869 -173.67 0.322709 -178.832
lowerback 14.9404 0.77526 1.03584
upperback -2.46168 1.22291 -0.132989
thorax -11.0881 0.509468 -1.02848
lowerneck -10.1738 -3.47321 -7.28716
upperneck -0.19068 -4.22079 7.65486
head 2.1191 -2.01351 3.63353
rclavicle -1.22377e-014 2.98177e-016
rhumerus -58.6639 24.2443 -100.007
rradius 45.7815
rwrist 19.2098
rhand -24.4486 -52.758
rfingers 7.12502
rthumb 2.04412 -82.7279
lclavicle -1.22377e-014 2.98177e-016
lhumerus -58.2073 -9.87642 89.4516
lradius 39.1385
lwrist -1.34157
lhand -5.52995 -43.5245
lfingers 7.12502
lthumb 20.2842 -14.5637
rfemur -16.7833 6.46521 23.6308
rtibia 30.0803
rfoot -19.613 -20.7482
rtoes -7.65163
lfemur -21.1837 -7.62641 -20.6423
ltibia 34.1853
lfoot -22.9776 9.2353
ltoes -40.239
69
root 8.59067 15.3359 23.0082 -173.358 0.320545 -178.768
lowerback 14.9416 0.767687 1.08334
upperback -2.28633 1.22446 -0.119458
thorax -10.8917 0.511607 -1.03899
lowerneck -10.2944 -3.43687 -7.31486
upperneck -0.459262 -4.17405 7.77843
head 2.05222 -1.99406 3.68349
rclavicle 1.41634e-015 3.8763e-015
rhumerus -58.3882 24.4876 -99.9074
rradius 46.2517
rwrist 19.1175
rhand -24.5095 -52.6712
rfingers 7.12502
rthumb 1.98526 -82.6417
lclavicle 1.41634e-015 3.8763e-015
lhumerus -57.8804 -10.0506 89.4607
lradius 39.4317
lwrist -1.12996
lhand -5.77798 -43.4558
lfingers 7.12502
lthumb 20.0458 -14.4699
rfemur -17.5125 6.1985 23.6809
rtibia 30.5523
rfoot -19.6707 -20.5489
rtoes -8.00372
lfemur -21.9521 -7.3182 -20.5114
ltibia 34.7776
lfoot -23.1971 8.84999
ltoes -39.9158
70
root 8.59403 15.3225 23.0277 -173.054 0.328551 -178.652
lowerback 15.1078 0.767632 1.21555
upperback -2.20318 1.25421 -0.108392
thorax -10.8927 0.519 -1.11141
lowerneck -10.4248 -3.43862 -7.27252
upperneck -0.599835 -4.17936 7.77752
head 2.02773 -1.99981 3.67301
rclavicle -8.82107e-016 5.66536e-015
rhumerus -58.2051 24.7552 -99.8763
rradius 46.7383
rwrist 18.8795
rhand -24.0882 -52.9378
rfingers 7.12502
rthumb 2.3922 -82.9041
lclavicle -8.82107e-016 5.66536e-015
lhumerus -57.7023 -10.2438 89.4482
lradius 39.8155
lwrist -0.97485
lhand -5.66419 -43.2856
lfingers 7.12502
lthumb 20.1551 -14.3112
rfemur -18.2321 6.05863 23.7787
rtibia 31.0423
rfoot -19.7636 -20.3867
rtoes -7.99581
lfemur -22.7238 -6.97782 -20.3687
ltibia 35.3981
lfoot -23.2483 8.84431
ltoes -40.9171
71
root 8.59885 15.3079 23.0473 -172.796 0.281388 -178.544
lowerback 15.4054 0.761558 1.33141
upperback -2.14891 1.27772 -0.0792115
thorax -11.0035 0.52376 -1.15653
lowerneck -10.6197 -3.45801 -7.19927
upperneck -0.650849 -4.20391 7.66873
head 2.04175 -2.01448 3.6171
rclavicle -1.35671e-014 1.98785e-015
rhumerus -58.1241 25.0303 -99.8084
rradius 47.288
rwrist 18.433
rhand -24.0345 -52.7722
rfingers 7.12502
rthumb 2.444 -82.738
lclavicle -1.35671e-014 1.98785e-015
lhumerus -57.6055 -10.4365 89.4449
lradius 40.2554
lwrist -0.884858
lhand -5.4149 -42.7888
lfingers 7.12502
lthumb 20.3947 -13.8398
rfemur -18.912 5.82881 23.907
rtibia 31.5706
rfoot -19.7526 -20.3205
rtoes -8.92233
lfemur -23.443 -6.65208 -20.2254
ltibia 36.0226
lfoot -23.3701 8.69247
ltoes -41.5362
